<svg width="299" height="255" viewBox="0 0 299 255" fill="none" xmlns="http://www.w3.org/2000/svg">
<path d="M0 247C0 251.418 3.58172 255 8 255C12.4183 255 16 251.418 16 247C16 242.582 12.4183 239 8 239C3.58172 239 0 242.582 0 247ZM100.5 143.5L100.835 144.962L100.5 143.5ZM167.5 75L166.303 74.0964L167.5 75ZM283 8C283 12.4183 286.582 16 291 16C295.418 16 299 12.4183 299 8C299 3.58172 295.418 0 291 0C286.582 0 283 3.58172 283 8ZM9.35171 247.65C16.7309 232.311 30.2008 208.734 46.5911 187.915C54.7851 177.507 63.6838 167.822 72.8891 160.204C82.1053 152.577 91.5495 147.09 100.835 144.962L100.165 142.038C90.2505 144.31 80.3863 150.106 70.9765 157.893C61.5558 165.689 52.5107 175.547 44.2339 186.06C27.6825 207.083 14.1024 230.855 6.64829 246.35L9.35171 247.65ZM100.835 144.962C112.803 142.22 120.338 140.253 125.524 137.89C130.844 135.467 133.725 132.613 136.433 128.231C141.74 119.642 146.267 105.623 168.697 75.9036L166.303 74.0964C143.817 103.89 138.844 118.621 133.881 126.654C131.453 130.583 129.006 133.008 124.281 135.16C119.422 137.374 112.197 139.28 100.165 142.038L100.835 144.962ZM168.697 75.9036C188.288 49.9455 211.813 47.2383 234.331 44.1107C245.555 42.552 256.632 40.8742 266.598 35.9874C276.636 31.0654 285.464 22.9361 292.351 8.65145L289.649 7.34855C283.036 21.0639 274.677 28.6846 265.277 33.2938C255.805 37.9383 245.195 39.573 233.919 41.1393C211.437 44.2617 186.712 47.0545 166.303 74.0964L168.697 75.9036Z" fill="black"/>
</svg>
