<svg width="24" height="16" viewBox="0 0 24 16" fill="none" xmlns="http://www.w3.org/2000/svg">
<path d="M2.4 4.71469H2.74285C4.06285 4.71469 5.14285 5.4219 5.14285 6.28626V14.1441C5.14285 15.0084 4.06285 15.7156 2.74285 15.7156H2.4C1.08 15.7156 0 15.0084 0 14.1441V6.28626C0 5.4219 1.08 4.71469 2.4 4.71469ZM12 0C13.32 0 14.4 0.707204 14.4 1.57156V14.1441C14.4 15.0084 13.32 15.7156 12 15.7156C10.68 15.7156 9.59998 15.0084 9.59998 14.1441V1.57156C9.59998 0.707204 10.68 0 12 0ZM21.6 8.98036C22.92 8.98036 24 9.68757 24 10.5519V14.1441C24 15.0084 22.92 15.7156 21.6 15.7156C20.28 15.7156 19.2 15.0084 19.2 14.1441V10.5519C19.2 9.68757 20.28 8.98036 21.6 8.98036Z" fill="black"/>
</svg>
