<svg width="295" height="251" viewBox="0 0 295 251" fill="none" xmlns="http://www.w3.org/2000/svg">
<path d="M-2.05272e-05 245.11C-2.05272e-05 248.059 2.3905 250.45 5.33935 250.45C8.2882 250.45 10.6787 248.059 10.6787 245.11C10.6787 242.161 8.2882 239.771 5.33935 239.771C2.3905 239.771 -2.05272e-05 242.161 -2.05272e-05 245.11ZM66.9089 176.032L67.4415 176.88L66.9089 176.032ZM284.321 5.33935C284.321 8.2882 286.712 10.6787 289.661 10.6787C292.609 10.6787 295 8.2882 295 5.33935C295 2.3905 292.609 -2.05272e-05 289.661 -2.05272e-05C286.712 -2.05272e-05 284.321 2.3905 284.321 5.33935ZM6.23277 245.562C13.6975 230.798 36.4191 196.368 67.4415 176.88L66.3764 175.184C34.9282 194.94 11.9981 229.722 4.44592 244.659L6.23277 245.562ZM67.4415 176.88C77.2178 170.738 83.238 166.631 87.5353 163.635C91.8482 160.629 94.3651 158.787 97.1993 157.123C102.861 153.8 109.758 151.21 134.338 141.929L133.631 140.056C109.156 149.297 102.037 151.962 96.1858 155.396C93.2635 157.112 90.6497 159.024 86.3903 161.993C82.1155 164.973 76.1221 169.062 66.3764 175.184L67.4415 176.88ZM134.338 141.929C146.567 137.312 154.314 135.136 159.654 133.896C162.328 133.275 164.402 132.888 166.162 132.542C167.912 132.199 169.381 131.891 170.777 131.432C173.62 130.495 176.069 128.957 180.181 125.421C184.28 121.896 190.125 116.302 199.747 107.18L198.369 105.727C188.72 114.875 182.927 120.419 178.876 123.903C174.838 127.374 172.626 128.714 170.15 129.53C168.887 129.946 167.532 130.233 165.776 130.578C164.031 130.92 161.916 131.315 159.201 131.946C153.763 133.209 145.93 135.413 133.631 140.056L134.338 141.929ZM199.747 107.18C209.411 98.0183 216.783 89.9869 222.778 83.3973C228.794 76.7842 233.365 71.6917 237.486 68.3084C241.582 64.9457 245.089 63.3966 248.967 63.6684C252.906 63.9446 257.435 66.1099 263.528 70.7112L264.735 69.1134C258.565 64.4542 253.646 61.9893 249.107 61.6711C244.506 61.3485 240.504 63.2407 236.216 66.7608C231.953 70.2603 227.263 75.492 221.297 82.05C215.309 88.6316 207.977 96.6182 198.369 105.727L199.747 107.18ZM263.528 70.7112C266.704 73.1087 269.619 74.1682 272.292 73.9456C274.985 73.7215 277.212 72.2159 279.036 69.9542C282.635 65.4923 284.951 57.7396 286.515 49.2579C288.09 40.7218 288.938 31.2433 289.486 23.1694C290.038 15.04 290.283 8.43163 290.654 5.46352L288.667 5.21517C288.287 8.25385 288.032 15.0356 287.489 23.0338C286.942 31.0875 286.1 40.474 284.546 48.8946C282.983 57.3696 280.73 64.6651 277.478 68.6972C275.876 70.6825 274.107 71.7853 272.126 71.9503C270.126 72.1168 267.692 71.3461 264.735 69.1134L263.528 70.7112Z" fill="#026108"/>
</svg>
